<?xml version="1.0" encoding="UTF-8"?>
<svg version="1.1" xmlns="http://www.w3.org/2000/svg" viewBox="0 0 500 200">
<path d="M0 0 C0.60585937 0.53238281 1.21171875 1.06476562 1.8359375 1.61328125 C2.44179687 2.11472656 3.04765625 2.61617187 3.671875 3.1328125 C11.37210398 10.04284331 16.11775779 20.31937204 16.8359375 30.61328125 C17.08232641 43.67189369 13.67682122 54.3963503 5.12109375 64.359375 C-3.36506488 72.7294836 -14.75120553 77.57651008 -26.6640625 78.11328125 C-38.14526884 77.58081951 -49.3770311 72.96095744 -58.1640625 65.61328125 C-61.41341097 61.52736582 -63.86414859 57.28996994 -66.1640625 52.61328125 C-66.53144531 51.91332031 -66.89882812 51.21335938 -67.27734375 50.4921875 C-71.90037572 40.30398909 -70.77671229 27.88220521 -67.1640625 17.61328125 C-61.73610271 5.54344095 -52.45197794 -2.71162496 -40.1640625 -7.38671875 C-26.381962 -11.55609369 -11.21466962 -9.22349359 0 0 Z " fill="#ED1C23" transform="translate(91.1640625,30.38671875)"/>
<path d="M0 0 C-0.55145271 5.23880078 -1.42922093 9.97350697 -3 15 C-3.66644531 14.84402344 -4.33289063 14.68804688 -5.01953125 14.52734375 C-13.05819707 12.82966747 -21.38876214 11.79053408 -28.9375 15.75 C-34.0559665 19.510506 -36.29210907 22.93153647 -38 29 C-38.82868488 37.21939775 -38.7660177 44.9902402 -34 52 C-29.9895368 56.0104632 -26.10479559 57.86368503 -20.44140625 58.23046875 C-19.16136719 58.21628906 -17.88132813 58.20210937 -16.5625 58.1875 C-15.28503906 58.18105469 -14.00757813 58.17460938 -12.69140625 58.16796875 C-9.37154045 58.01690607 -6.25871405 57.62958154 -3 57 C-1.73694665 62.07476794 -0.72963916 66.72796354 -1 72 C-13.23814901 76.3707675 -27.33985753 76.18449874 -39.25 70.9375 C-47.65068167 66.33198159 -52.96492561 58.96804466 -56 50 C-58.99089326 39.3369956 -58.06287371 25.81110556 -53 16 C-47.14704383 6.53277597 -39.67794693 1.0956596 -29 -1.875 C-19.01855701 -4.03211492 -9.67233631 -3.2241121 0 0 Z " fill="#00A751" transform="translate(237,5)"/>
<path d="M0 0 C18.15 0 36.3 0 55 0 C55 5.28 55 10.56 55 16 C48.73 16 42.46 16 36 16 C36 35.47 36 54.94 36 75 C30.39 75 24.78 75 19 75 C19 55.53 19 36.06 19 16 C12.73 16 6.46 16 0 16 C0 10.72 0 5.44 0 0 Z " fill="#00A751" transform="translate(242,3)"/>
<path d="M0 0 C5.28 0 10.56 0 16 0 C16 24.75 16 49.5 16 75 C10.39 75 4.78 75 -1 75 C-1.02255209 65.36886982 -1.0409157 55.73775705 -1.05181217 46.10660648 C-1.05704074 41.63494451 -1.06413789 37.16330147 -1.07543945 32.69165039 C-1.08626929 28.37988027 -1.09227704 24.06812841 -1.09487724 19.75634575 C-1.09673132 18.10763702 -1.1003516 16.45892934 -1.10573006 14.81022835 C-1.11294178 12.50896128 -1.11399089 10.2077706 -1.11352539 7.90649414 C-1.115746 6.5941127 -1.11796661 5.28173126 -1.12025452 3.92958069 C-1 1 -1 1 0 0 Z " fill="#00A751" transform="translate(154,3)"/>
<path d="M0 0 C0.86625 0.495 0.86625 0.495 1.75 1 C4.19883862 2.27075898 4.19883862 2.27075898 8 2 C8.33 2.99 8.66 3.98 9 5 C9.99 5.33 10.98 5.66 12 6 C12.33 5.34 12.66 4.68 13 4 C15 6 15 6 15.1953125 7.9453125 C15.13020833 9.96354167 15.06510417 11.98177083 15 14 C15.65597168 14.02505615 16.31194336 14.0501123 16.98779297 14.07592773 C19.95040183 14.1917326 22.91268031 14.31452886 25.875 14.4375 C27.42380859 14.49647461 27.42380859 14.49647461 29.00390625 14.55664062 C29.99003906 14.59853516 30.97617188 14.64042969 31.9921875 14.68359375 C32.90339355 14.72025146 33.81459961 14.75690918 34.75341797 14.79467773 C37 15 37 15 39 16 C39 16.66 39 17.32 39 18 C38.34 18 37.68 18 37 18 C36.814375 19.1446875 36.814375 19.1446875 36.625 20.3125 C36 23 36 23 34 26 C31.375 26.6875 31.375 26.6875 29 27 C28.13149826 29.24875747 28.13149826 29.24875747 28 32 C29.8312811 34.81099414 29.8312811 34.81099414 32 37 C32.66 34.69 33.32 32.38 34 30 C35.32 30 36.64 30 38 30 C38.19916016 31.04800781 38.19916016 31.04800781 38.40234375 32.1171875 C38.57894531 33.02726562 38.75554687 33.93734375 38.9375 34.875 C39.11152344 35.77992187 39.28554687 36.68484375 39.46484375 37.6171875 C39.89963701 39.99956317 39.89963701 39.99956317 41 42 C41.07092842 44.2072923 41.08415025 46.41667452 41.0625 48.625 C41.05347656 49.81351563 41.04445312 51.00203125 41.03515625 52.2265625 C41.02355469 53.14179687 41.01195312 54.05703125 41 55 C40.01 54.67 39.02 54.34 38 54 C38 55.98 38 57.96 38 60 C36.5 58.75 36.5 58.75 35 57 C35 55.68 35 54.36 35 53 C34.34 53 33.68 53 33 53 C33.04125 51.96875 33.0825 50.9375 33.125 49.875 C33.00424851 46.13170373 32.35127982 43.46265453 31 40 C30.01 40.66 29.02 41.32 28 42 C25.03923709 41.64111965 24.15341979 41.15341979 22 39 C22.66 39.99 23.32 40.98 24 42 C24.125 44.6875 24.125 44.6875 24 47 C22.515 47.495 22.515 47.495 21 48 C20.34 47.67 19.68 47.34 19 47 C18.67 47.99 18.34 48.98 18 50 C16.515 49.505 16.515 49.505 15 49 C12.64811553 49.59793673 10.31074405 50.25881795 8 51 C6.23081658 46.28217755 5.41616692 41.99400307 5 37 C5.33 36.34 5.66 35.68 6 35 C5.34 35 4.68 35 4 35 C1.78461538 29.70769231 1.78461538 29.70769231 2.875 26.125 C3.24625 25.42375 3.6175 24.7225 4 24 C2.35 23.67 0.7 23.34 -1 23 C-1.33 21.68 -1.66 20.36 -2 19 C-1.01 18.67 -0.02 18.34 1 18 C1 17.01 1 16.02 1 15 C2.65 15 4.3 15 6 15 C4.74458443 12.48916886 3.49936512 12.12874554 1 11 C1 10.34 1 9.68 1 9 C0.01 9 -0.98 9 -2 9 C-1.41196203 5.97580475 -0.77321882 2.98241547 0 0 Z " fill="#FEEC01" transform="translate(46,37)"/>
<path d="M0 0 C1.00329346 0.00829834 2.00658691 0.01659668 3.0402832 0.02514648 C21.11112626 0.43429215 34.96132523 7.7556673 47.6875 20.4375 C48.32429688 21.05109375 48.96109375 21.6646875 49.6171875 22.296875 C61.77761431 34.94371889 65.88119804 52.40031463 65.6875 69.4375 C64.82018939 82.77831417 59.39313646 94.67737702 51.6875 105.4375 C51.23890625 106.07171875 50.7903125 106.7059375 50.328125 107.359375 C39.51259329 121.22870389 22.64870454 128.20085764 5.6875 130.4375 C-11.90808045 132.16349699 -28.46030729 125.76536749 -42.25 115.1875 C-54.37886845 104.57246024 -62.87400723 89.78056116 -64.61621094 73.62036133 C-64.74808521 70.78134619 -64.7806145 67.96684523 -64.75 65.125 C-64.74170166 64.12170654 -64.73340332 63.11841309 -64.72485352 62.0847168 C-64.31570785 44.01387374 -56.9943327 30.16367477 -44.3125 17.4375 C-43.69890625 16.80070312 -43.0853125 16.16390625 -42.453125 15.5078125 C-31.14630477 4.63586997 -15.38769691 -0.16576788 0 0 Z M-49.1796875 25.5 C-60.6378042 39.74843527 -63.92623673 56.62676595 -62.3125 74.4375 C-60.20730455 89.02753544 -53.56879386 100.14590048 -43.3125 110.4375 C-42.69761719 111.07558594 -42.08273438 111.71367188 -41.44921875 112.37109375 C-29.39357922 123.96206195 -13.46446177 127.94967744 2.77319336 127.85961914 C19.99448277 127.39135728 33.57767719 120.50577968 45.6875 108.4375 C46.32558594 107.82261719 46.96367188 107.20773438 47.62109375 106.57421875 C59.1124835 94.62214968 63.20108052 78.57968666 63.03710938 62.43798828 C62.49990041 44.22733035 54.65589277 29.76501289 41.6875 17.4375 C27.85027536 4.9106186 10.96394255 1.38018416 -7.13427734 2.27783203 C-24.40941598 3.54413338 -37.93888544 13.08338183 -49.1796875 25.5 Z " fill="#00A650" transform="translate(64.3125,-0.4375)"/>
<path d="M0 0 C0.99 0.66 1.98 1.32 3 2 C3 2.66 3 3.32 3 4 C4.32 4.33 5.64 4.66 7 5 C7 5.66 7 6.32 7 7 C5.68 7 4.36 7 3 7 C3 9.97 3 12.94 3 16 C2.01 15.67 1.02 15.34 0 15 C0.33 12.03 0.66 9.06 1 6 C-1.18331689 7.76136355 -1.18331689 7.76136355 -1.1953125 9.9453125 C-1.17210937 10.66460937 -1.14890625 11.38390625 -1.125 12.125 C-1.08375 13.40375 -1.0425 14.6825 -1 16 C-7.625 16.25 -7.625 16.25 -11 14 C-11.1875 10.875 -11.1875 10.875 -11 8 C-11.99 8.33 -12.98 8.66 -14 9 C-13.505 9.495 -13.505 9.495 -13 10 C-12.75 12.4375 -12.75 12.4375 -13 15 C-16 17 -16 17 -18.375 16.8125 C-21.25083387 15.92236094 -23.49123061 14.64861989 -26 13 C-25.505 13.94875 -25.01 14.8975 -24.5 15.875 C-23 19 -23 19 -23 21 C-23.99 20.67 -24.98 20.34 -26 20 C-27.1875 16.9375 -27.1875 16.9375 -28 14 C-28.33 14.33 -28.66 14.66 -29 15 C-28.74524194 17.52391899 -28.74524194 17.52391899 -28 20 C-27.34 20.33 -26.68 20.66 -26 21 C-26 21.66 -26 22.32 -26 23 C-27.32 23 -28.64 23 -30 23 C-30.45375 23.515625 -30.9075 24.03125 -31.375 24.5625 C-32.179375 25.2740625 -32.179375 25.2740625 -33 26 C-36.1875 25.6875 -36.1875 25.6875 -39 25 C-39 25.33 -39 25.66 -39 26 C-38.34 26.474375 -37.68 26.94875 -37 27.4375 C-36.34 27.953125 -35.68 28.46875 -35 29 C-35 29.66 -35 30.32 -35 31 C-35.598125 31.0825 -36.19625 31.165 -36.8125 31.25 C-39.5966296 32.20455872 -40.43311142 33.57132271 -42 36 C-46.75 35.25 -46.75 35.25 -49 33 C-49.41457322 29.84924352 -49.31649962 28.46156194 -47.5 25.8125 C-46.7575 24.9153125 -46.7575 24.9153125 -46 24 C-46 23.34 -46 22.68 -46 22 C-44.33779419 20.99260254 -42.66979326 19.99477045 -41 19 C-39.17472905 17.51022743 -37.40904321 15.96776919 -35.6484375 14.40234375 C-34 13 -34 13 -31 11 C-31 10.34 -31 9.68 -31 9 C-30.195625 8.896875 -29.39125 8.79375 -28.5625 8.6875 C-25.70253289 8.13557652 -23.23293422 7.44797211 -20.5 6.5 C-17.01553435 5.2913444 -13.67139867 4.47069214 -10 4 C-10 2.68 -10 1.36 -10 0 C-6.25105057 -1.24964981 -3.84864723 -0.75598428 0 0 Z M-2 2 C-1.67 2.66 -1.34 3.32 -1 4 C-0.34 3.67 0.32 3.34 1 3 C0.01 2.67 -0.98 2.34 -2 2 Z M-24 10 C-23.01 10.99 -22.02 11.98 -21 13 C-21 12.01 -21 11.02 -21 10 C-21.99 10 -22.98 10 -24 10 Z M-9 10 C-9 10.99 -9 11.98 -9 13 C-8.34 12.67 -7.68 12.34 -7 12 C-7.66 11.34 -8.32 10.68 -9 10 Z M-16 11 C-16.33 11.66 -16.66 12.32 -17 13 C-16.34 13 -15.68 13 -15 13 C-15.33 12.34 -15.66 11.68 -16 11 Z M-37 19 C-36.67 19.66 -36.34 20.32 -36 21 C-35.67 20.34 -35.34 19.68 -35 19 C-35.66 19 -36.32 19 -37 19 Z M-43 27 C-42.34 28.32 -41.68 29.64 -41 31 C-41 29.68 -41 28.36 -41 27 C-41.66 27 -42.32 27 -43 27 Z M-46 31 C-45 33 -45 33 -45 33 Z " fill="#01A751" transform="translate(67,4)"/>
<path d="M0 0 C1.24716797 0.433125 1.24716797 0.433125 2.51953125 0.875 C4.14955078 1.431875 4.14955078 1.431875 5.8125 2 C7.43091797 2.556875 7.43091797 2.556875 9.08203125 3.125 C11.97120802 4.14361512 11.97120802 4.14361512 15 4 C15.20625 4.78375 15.4125 5.5675 15.625 6.375 C16.305625 7.674375 16.305625 7.674375 17 9 C17.91007812 9.2784375 18.82015625 9.556875 19.7578125 9.84375 C23.66988223 11.23889776 25.44029278 13.09982443 28.25 16.125 C29.79939887 17.78238728 31.37537453 19.41628237 33 21 C33.66 21 34.32 21 35 21 C35.1546875 22.05960938 35.1546875 22.05960938 35.3125 23.140625 C36.09190562 26.38224384 37.39448345 28.83228243 39 31.75 C41.75008801 37.0729627 42.71695947 41.05614877 43 47 C43.7763932 50.0745356 43.7763932 50.0745356 46 52 C45.34 53.32 44.68 54.64 44 56 C43.34 56 42.68 56 42 56 C42 55.34 42 54.68 42 54 C38.7 54 35.4 54 32 54 C32 53.34 32 52.68 32 52 C33.65 51.34 35.3 50.68 37 50 C36.505 47.03 36.505 47.03 36 44 C36.99 43.34 37.98 42.68 39 42 C34.545 42.495 34.545 42.495 30 43 C30 42.34 30 41.68 30 41 C32.475 40.505 32.475 40.505 35 40 C35 39.34 35 38.68 35 38 C33.68 38 32.36 38 31 38 C31 37.34 31 36.68 31 36 C29.68 35.67 28.36 35.34 27 35 C26.6875 32.6875 26.6875 32.6875 27 30 C29.4375 28.3125 29.4375 28.3125 32 27 C32.33 26.34 32.66 25.68 33 25 C32.52949219 25.37253906 32.05898437 25.74507812 31.57421875 26.12890625 C30.95160156 26.60199219 30.32898438 27.07507813 29.6875 27.5625 C29.07261719 28.03816406 28.45773438 28.51382813 27.82421875 29.00390625 C27.22222656 29.33261719 26.62023437 29.66132812 26 30 C25.01 29.67 24.02 29.34 23 29 C26.75 25.125 26.75 25.125 29 24 C29 23.34 29 22.68 29 22 C27.576875 23.2375 27.576875 23.2375 26.125 24.5 C23.25 27 23.25 27 21 27 C21 26.01 21 25.02 21 24 C23 22.3125 23 22.3125 25 21 C23.02 20.67 21.04 20.34 19 20 C19 18.35 19 16.7 19 15 C18.34 15 17.68 15 17 15 C17 17.31 17 19.62 17 22 C16.34 22 15.68 22 15 22 C12.72321429 13.96428571 12.72321429 13.96428571 14 10 C12.68 12.31 11.36 14.62 10 17 C9.34 16.67 8.68 16.34 8 16 C8.33 15.236875 8.66 14.47375 9 13.6875 C10.17436686 11.00930865 10.17436686 11.00930865 10 8 C9.01 10.31 8.02 12.62 7 15 C6.34 15 5.68 15 5 15 C4.731875 14.236875 4.46375 13.47375 4.1875 12.6875 C3.04199033 10.09503074 2.00288478 8.91184456 0 7 C0 6.34 0 5.68 0 5 C0.99 4.67 1.98 4.34 3 4 C2.01 3.67 1.02 3.34 0 3 C0 2.01 0 1.02 0 0 Z M5 7 C5 7.66 5 8.32 5 9 C5.66 9 6.32 9 7 9 C7 8.34 7 7.68 7 7 C6.34 7 5.68 7 5 7 Z M31 30 C30.34 30.66 29.68 31.32 29 32 C29.66 32 30.32 32 31 32 C31.33 33.32 31.66 34.64 32 36 C32 35.34 32 34.68 32 34 C33.65 33.67 35.3 33.34 37 33 C36.34 32.01 35.68 31.02 35 30 C33.68 30 32.36 30 31 30 Z M36 35 C36.66 35.66 37.32 36.32 38 37 C38 36.34 38 35.68 38 35 C37.34 35 36.68 35 36 35 Z " fill="#01A750" transform="translate(77,9)"/>
<path d="M0 0 C-0.2475 0.53625 -0.495 1.0725 -0.75 1.625 C-1.1333252 5.26658941 0.93282694 7.11848603 3 10 C3 10.66 3 11.32 3 12 C0.525 11.505 0.525 11.505 -2 11 C-2.33 11.99 -2.66 12.98 -3 14 C-3.99 14 -4.98 14 -6 14 C-6.495 13.01 -6.495 13.01 -7 12 C-9.02463255 11.34786708 -9.02463255 11.34786708 -11 11 C-11 9 -11 9 -9 7 C-9.99 7.66 -10.98 8.32 -12 9 C-11.34 11.97 -10.68 14.94 -10 18 C-10.99 17.67 -11.98 17.34 -13 17 C-14.6875 13.4375 -14.6875 13.4375 -16 10 C-16 10.66 -16 11.32 -16 12 C-16 13.32 -16 14.64 -16 16 C-17.65 16 -19.3 16 -21 16 C-20.505 17.98 -20.505 17.98 -20 20 C-24.03520597 18.41037341 -28.01811282 16.71767682 -32 15 C-32 14.34 -32 13.68 -32 13 C-31.01 12.67 -30.02 12.34 -29 12 C-30.32 11.67 -31.64 11.34 -33 11 C-33 14.3 -33 17.6 -33 21 C-33.99 20.67 -34.98 20.34 -36 20 C-36.33 19.34 -36.66 18.68 -37 18 C-38.32 18.33 -39.64 18.66 -41 19 C-44 13.25 -44 13.25 -44 11 C-43.34 10.67 -42.68 10.34 -42 10 C-42.99 9.67 -43.98 9.34 -45 9 C-45.144375 10.11375 -45.28875 11.2275 -45.4375 12.375 C-46 16 -46 16 -47 18 C-47.66 18 -48.32 18 -49 18 C-49 15.69 -49 13.38 -49 11 C-51.31 11 -53.62 11 -56 11 C-56.33 9.35 -56.66 7.7 -57 6 C-56.34 6 -55.68 6 -55 6 C-55 6.66 -55 7.32 -55 8 C-54.34 7.67 -53.68 7.34 -53 7 C-54.32 5.35 -55.64 3.7 -57 2 C-56.34 1.67 -55.68 1.34 -55 1 C-52.71484375 1.92578125 -52.71484375 1.92578125 -49.9375 3.3125 C-38.940289 8.46073922 -27.9334192 9.20989244 -16 7 C-15.67 6.34 -15.34 5.68 -15 5 C-14.319375 4.87625 -13.63875 4.7525 -12.9375 4.625 C-9.50064137 3.89375348 -6.84744609 2.4935609 -3.76953125 0.83984375 C-2 0 -2 0 0 0 Z M-4 6 C-4.99 7.485 -4.99 7.485 -6 9 C-4.68 8.67 -3.36 8.34 -2 8 C-2.66 7.34 -3.32 6.68 -4 6 Z M-21 12 C-20 14 -20 14 -20 14 Z M-39 13 C-37.515 13.99 -37.515 13.99 -36 15 C-36 14.34 -36 13.68 -36 13 C-36.99 13 -37.98 13 -39 13 Z M-25 13 C-25.33 13.66 -25.66 14.32 -26 15 C-25.34 15 -24.68 15 -24 15 C-24.33 14.34 -24.66 13.68 -25 13 Z " fill="#00A851" transform="translate(91,103)"/>
<path d="M0 0 C2.31 0 4.62 0 7 0 C8.99609375 2.1875 8.99609375 2.1875 10.4375 5 C11.17806641 6.3921875 11.17806641 6.3921875 11.93359375 7.8125 C12.28550781 8.534375 12.63742187 9.25625 13 10 C13.33 6.7 13.66 3.4 14 0 C16.31 0 18.62 0 21 0 C21 8.58 21 17.16 21 26 C18.69 26 16.38 26 14 26 C11.78515625 23.375 11.78515625 23.375 10.0625 20 C9.47597656 18.88625 8.88945312 17.7725 8.28515625 16.625 C7.64900391 15.325625 7.64900391 15.325625 7 14 C6.67 17.96 6.34 21.92 6 26 C4.02 26 2.04 26 0 26 C0 17.42 0 8.84 0 0 Z M14 12 C15 14 15 14 15 14 Z " fill="#00A851" transform="translate(277,91)"/>
<path d="M0 0 C3.36643074 2.79342125 5.79509037 4.94418536 6.23828125 9.390625 C6.39598481 15.46636205 6.2497954 19.2645137 2 24 C-2.24740799 26.83160532 -6.01346043 26.64522317 -11 26 C-14.15460202 24.22553637 -15.50737276 22.84450384 -17.3125 19.75 C-18.5973759 14.61049639 -18.59789081 10.58441066 -16.75 5.6875 C-12.64318142 -0.61939996 -7.18749275 -2.08759536 0 0 Z M-9.75 6.5625 C-11.77457971 10.51043044 -11.57094927 14.19199397 -10.25 18.375 C-9.08555378 20.11992473 -9.08555378 20.11992473 -7.125 21 C-4.86272433 21.18468021 -4.86272433 21.18468021 -2.75 19.625 C-0.53528906 16.30293359 -0.55981496 14.02973104 -0.56640625 10.12109375 C-1.1068099 7.47749751 -1.80852715 6.55539909 -4 5 C-7.89371498 4.55598949 -7.89371498 4.55598949 -9.75 6.5625 Z " fill="#00A851" transform="translate(268,91)"/>
<path d="M0 0 C3.16836838 2.58642317 5.72748939 4.76630646 6.23828125 8.953125 C6.41759456 14.50239994 5.81427422 17.67028332 2 22 C-3 25 -3 25 -16 25 C-16 16.42 -16 7.84 -16 -1 C-9.89499206 -2.01750132 -5.78960552 -1.98776456 0 0 Z M-10 4 C-10 9.28 -10 14.56 -10 20 C-4.35820953 19.5959806 -4.35820953 19.5959806 -2.125 17.375 C-0.53865442 14.02604821 -0.54253343 11.65973254 -1 8 C-2.54285631 5.45668762 -2.54285631 5.45668762 -5 4 C-6.65 4 -8.3 4 -10 4 Z " fill="#00A852" transform="translate(171,92)"/>
<path d="M0 0 C2.64 0 5.28 0 8 0 C8.50636607 1.74816858 9.00484619 3.49862263 9.5 5.25 C9.7784375 6.22453125 10.056875 7.1990625 10.34375 8.203125 C11 11 11 11 11 15 C11.66 15 12.32 15 13 15 C13.12375 13.824375 13.2475 12.64875 13.375 11.4375 C13.86435935 7.45879574 14.8055205 3.82233441 16 0 C18.64 0 21.28 0 24 0 C21.36 8.58 18.72 17.16 16 26 C13.36 26 10.72 26 8 26 C6.66433641 21.85491369 5.33185875 17.70881026 4 13.5625 C3.6184375 12.37849609 3.236875 11.19449219 2.84375 9.97460938 C2.4828125 8.84990234 2.121875 7.72519531 1.75 6.56640625 C1.41484375 5.52427979 1.0796875 4.48215332 0.734375 3.40844727 C0 1 0 1 0 0 Z " fill="#00A852" transform="translate(187,91)"/>
<path d="M0 0 C-0.33 1.98 -0.66 3.96 -1 6 C-3.64 6 -6.28 6 -9 6 C-9 6.66 -9 7.32 -9 8 C-8.0925 8.391875 -7.185 8.78375 -6.25 9.1875 C-2.75395685 11.13721637 -1.007925 12.546369 1 16 C0.93353155 19.32342272 0.63865125 21.19474408 -1.4375 23.8125 C-4.3749496 26.0449617 -6.36624234 26.13556325 -10 26.125 C-10.886875 26.12757812 -11.77375 26.13015625 -12.6875 26.1328125 C-15 26 -15 26 -17 25 C-16.67 23.02 -16.34 21.04 -16 19 C-12.7 19.33 -9.4 19.66 -6 20 C-6.65189448 16.93916147 -6.65189448 16.93916147 -8.77734375 15.97265625 C-10.21430511 15.3672096 -11.6518039 14.76303684 -13.08984375 14.16015625 C-15.44714713 12.72841984 -16.06893841 11.56895004 -17 9 C-17 6 -17 6 -16 3 C-11.01089914 -1.98910086 -6.43600888 -1.17018343 0 0 Z " fill="#00A851" transform="translate(238,91)"/>
<path d="M0 0 C2.31 0 4.62 0 7 0 C7 8.58 7 17.16 7 26 C4.69 26 2.38 26 0 26 C0 17.42 0 8.84 0 0 Z " fill="#00A951" transform="translate(212,91)"/>
<path d="M0 0 C2.31 0 4.62 0 7 0 C7 8.58 7 17.16 7 26 C4.69 26 2.38 26 0 26 C0 17.42 0 8.84 0 0 Z " fill="#00A852" transform="translate(241,91)"/>
<path d="M0 0 C2.31 0 4.62 0 7 0 C7 8.58 7 17.16 7 26 C4.69 26 2.38 26 0 26 C0 17.42 0 8.84 0 0 Z " fill="#00A852" transform="translate(179,91)"/>
<path d="M0 0 C0.33 0.99 0.66 1.98 1 3 C4.50294871 4.71567661 4.50294871 4.71567661 8 6 C8 6.66 8 7.32 8 8 C5.03 7.505 5.03 7.505 2 7 C1.87625 7.804375 1.7525 8.60875 1.625 9.4375 C1.41875 10.283125 1.2125 11.12875 1 12 C0.01 12.495 0.01 12.495 -1 13 C1.31 13.66 3.62 14.32 6 15 C5.67 15.66 5.34 16.32 5 17 C3.02 17 1.04 17 -1 17 C-0.34 17.33 0.32 17.66 1 18 C0.67 19.32 0.34 20.64 0 22 C-1.98 22.33 -3.96 22.66 -6 23 C-6.38133299 21.0085944 -6.71325582 19.00720923 -7 17 C-6.67 16.67 -6.34 16.34 -6 16 C-6.66 15.67 -7.32 15.34 -8 15 C-8 14.34 -8 13.68 -8 13 C-7.34 13 -6.68 13 -6 13 C-5.4254048 9.26513121 -5 5.78706732 -5 2 C-2 0 -2 0 0 0 Z M-2 7 C-1 9 -1 9 -1 9 Z " fill="#00A751" transform="translate(15,41)"/>
<path d="M0 0 C3.63 0 7.26 0 11 0 C13 5 13 5 12 8 C12.27769908 10.3406065 12.60539977 12.67624308 13 15 C11.68 15 10.36 15 9 15 C9 13.02 9 11.04 9 9 C7.02 9 5.04 9 3 9 C3 10.98 3 12.96 3 15 C2.01 15 1.02 15 0 15 C0 10.05 0 5.1 0 0 Z M3 3 C3 3.99 3 4.98 3 6 C4.98 6 6.96 6 9 6 C9 5.01 9 4.02 9 3 C7.02 3 5.04 3 3 3 Z " fill="#F21C24" transform="translate(101,147)"/>
<path d="M0 0 C1.60875 -0.020625 3.2175 -0.04125 4.875 -0.0625 C5.77992188 -0.07410156 6.68484375 -0.08570313 7.6171875 -0.09765625 C10 0 10 0 12 1 C11.979375 2.010625 11.95875 3.02125 11.9375 4.0625 C11.99687734 7.80327257 12.39795085 11.31244898 13 15 C11.68 15 10.36 15 9 15 C9 13.02 9 11.04 9 9 C7.02 9 5.04 9 3 9 C3 10.98 3 12.96 3 15 C1.68 14.67 0.36 14.34 -1 14 C-0.67 9.38 -0.34 4.76 0 0 Z M3 3 C3 3.99 3 4.98 3 6 C4.98 6 6.96 6 9 6 C9 5.01 9 4.02 9 3 C7.02 3 5.04 3 3 3 Z " fill="#F01D24" transform="translate(265,147)"/>
<path d="M0 0 C0.33 1.65 0.66 3.3 1 5 C0.01 5 -0.98 5 -2 5 C-2.33 4.34 -2.66 3.68 -3 3 C-3.99 3 -4.98 3 -6 3 C-6.33 3.66 -6.66 4.32 -7 5 C-4.36 5.66 -1.72 6.32 1 7 C1.625 9.875 1.625 9.875 2 13 C0 15 0 15 -3.9375 15.3125 C-6.62386205 15.24424398 -7.71907595 15.18435641 -10 13.6875 C-11 12 -11 12 -11 9 C-10.01 9 -9.02 9 -8 9 C-7.525625 9.495 -7.05125 9.99 -6.5625 10.5 C-4.88006936 12.46168789 -4.88006936 12.46168789 -1 12 C-2.305239 9.38952199 -3.35826574 9.31933577 -6.0625 8.375 C-6.79597656 8.11460937 -7.52945313 7.85421875 -8.28515625 7.5859375 C-8.85105469 7.39257812 -9.41695312 7.19921875 -10 7 C-10.22111261 4.27294446 -10.30361625 2.53579338 -8.9375 0.125 C-5.88430685 -1.64782183 -3.33588292 -0.69235306 0 0 Z " fill="#EE1C24" transform="translate(189,147)"/>
<path d="M0 0 C3.96 0 7.92 0 12 0 C12 0.99 12 1.98 12 3 C9.03 3 6.06 3 3 3 C3 3.99 3 4.98 3 6 C5.64 6 8.28 6 11 6 C11 6.99 11 7.98 11 9 C8.36 9 5.72 9 3 9 C3 9.99 3 10.98 3 12 C5.97 12 8.94 12 12 12 C12 12.99 12 13.98 12 15 C8.04 15 4.08 15 0 15 C0 10.05 0 5.1 0 0 Z " fill="#F11B23" transform="translate(125,147)"/>
<path d="M0 0 C3.63 0 7.26 0 11 0 C11 0.99 11 1.98 11 3 C8.36 3 5.72 3 3 3 C3 3.99 3 4.98 3 6 C5.64 6 8.28 6 11 6 C11 6.99 11 7.98 11 9 C8.36 9 5.72 9 3 9 C3 9.99 3 10.98 3 12 C5.64 12 8.28 12 11 12 C11 12.99 11 13.98 11 15 C7.37 15 3.74 15 0 15 C0 10.05 0 5.1 0 0 Z " fill="#F11C24" transform="translate(289,147)"/>
<path d="M0 0 C3.63 0 7.26 0 11 0 C11 0.99 11 1.98 11 3 C8.36 3 5.72 3 3 3 C3 3.99 3 4.98 3 6 C5.64 6 8.28 6 11 6 C10.67 6.99 10.34 7.98 10 9 C7.69 9 5.38 9 3 9 C3 9.99 3 10.98 3 12 C5.64 12 8.28 12 11 12 C11 12.99 11 13.98 11 15 C7.37 15 3.74 15 0 15 C0 10.05 0 5.1 0 0 Z " fill="#F11B24" transform="translate(242,147)"/>
<path d="M0 0 C0.99 0 1.98 0 3 0 C3 1.65 3 3.3 3 5 C5.31 5 7.62 5 10 5 C10 3.35 10 1.7 10 0 C10.99 0 11.98 0 13 0 C13 4.95 13 9.9 13 15 C12.01 15 11.02 15 10 15 C10 12.69 10 10.38 10 8 C7.69 8 5.38 8 3 8 C3 10.31 3 12.62 3 15 C2.01 15 1.02 15 0 15 C0 10.05 0 5.1 0 0 Z " fill="#F01C24" transform="translate(217,147)"/>
<path d="M0 0 C0.99 0 1.98 0 3 0 C3 3.96 3 7.92 3 12 C4.65 11.67 6.3 11.34 8 11 C8.33 7.37 8.66 3.74 9 0 C9.99 0 10.98 0 12 0 C12.05386629 2.12472576 12.09273071 4.24983652 12.125 6.375 C12.14820312 7.55835938 12.17140625 8.74171875 12.1953125 9.9609375 C12 13 12 13 10 15 C8.125 15.265625 8.125 15.265625 6 15.25 C5.29875 15.25515625 4.5975 15.2603125 3.875 15.265625 C2 15 2 15 0 13 C-0.1953125 9.9609375 -0.1953125 9.9609375 -0.125 6.375 C-0.10695313 5.18648437 -0.08890625 3.99796875 -0.0703125 2.7734375 C-0.04710938 1.85820312 -0.02390625 0.94296875 0 0 Z " fill="#F01C24" transform="translate(77,147)"/>
<path d="M0 0 C0.99 0 1.98 0 3 0 C3 3.96 3 7.92 3 12 C4.65 11.67 6.3 11.34 8 11 C8.33 7.37 8.66 3.74 9 0 C9.99 0 10.98 0 12 0 C12.08107583 1.93681161 12.13922475 3.8745934 12.1875 5.8125 C12.22230469 6.89144531 12.25710937 7.97039062 12.29296875 9.08203125 C12 12 12 12 10.7109375 13.8671875 C7.8805362 15.74119749 5.27957019 15.29814274 2 15 C0 13 0 13 -0.1953125 9.9609375 C-0.17210938 8.77757812 -0.14890625 7.59421875 -0.125 6.375 C-0.10695313 5.18648437 -0.08890625 3.99796875 -0.0703125 2.7734375 C-0.04710938 1.85820312 -0.02390625 0.94296875 0 0 Z " fill="#F21C24" transform="translate(31,147)"/>
<path d="M0 0 C3.63 0 7.26 0 11 0 C11 0.99 11 1.98 11 3 C8.36 3 5.72 3 3 3 C3 3.99 3 4.98 3 6 C5.31 6 7.62 6 10 6 C10 6.99 10 7.98 10 9 C7.69 9 5.38 9 3 9 C3 10.98 3 12.96 3 15 C2.01 15 1.02 15 0 15 C0 10.05 0 5.1 0 0 Z " fill="#F11C24" transform="translate(9,147)"/>
<path d="M0 0 C4.29 0 8.58 0 13 0 C13 0.99 13 1.98 13 3 C11.68 3.33 10.36 3.66 9 4 C9 7.3 9 10.6 9 14 C7.68 14.33 6.36 14.66 5 15 C5 11.04 5 7.08 5 3 C3.35 2.67 1.7 2.34 0 2 C0 1.34 0 0.68 0 0 Z " fill="#DE2325" transform="translate(53,147)"/>
<path d="M0 0 C2.64 0.33 5.28 0.66 8 1 C8 3.97 8 6.94 8 10 C7.21625 10.144375 6.4325 10.28875 5.625 10.4375 C3.03578982 10.87798925 3.03578982 10.87798925 1 12 C0.731875 11.360625 0.46375 10.72125 0.1875 10.0625 C-0.88667752 7.66868314 -0.88667752 7.66868314 -4 7 C-4 6.34 -4 5.68 -4 5 C-2.68 4.67 -1.36 4.34 0 4 C0 2.68 0 1.36 0 0 Z " fill="#E51F25" transform="translate(114,71)"/>
<path d="M0 0 C0.12375 0.804375 0.2475 1.60875 0.375 2.4375 C0.58125 3.283125 0.7875 4.12875 1 5 C1.66 5.33 2.32 5.66 3 6 C3 6.66 3 7.32 3 8 C2.01 8.33 1.02 8.66 0 9 C-0.33 9.99 -0.66 10.98 -1 12 C-3.64 11.34 -6.28 10.68 -9 10 C-8.67 7.36 -8.34 4.72 -8 2 C-7.21625 1.855625 -6.4325 1.71125 -5.625 1.5625 C-3.76394715 1.16370296 -1.83313854 0 0 0 Z " fill="#EF1C24" transform="translate(24,87)"/>
<path d="M0 0 C2.64 0.33 5.28 0.66 8 1 C8.33 3.64 8.66 6.28 9 9 C3.71502591 10.76165803 3.71502591 10.76165803 1 11 C-1.5 9.125 -1.5 9.125 -3 7 C-2.67 6.01 -2.34 5.02 -2 4 C-1.34 4 -0.68 4 0 4 C0 2.68 0 1.36 0 0 Z " fill="#EC1D24" transform="translate(107,88)"/>
<path d="M0 0 C0.66 0 1.32 0 2 0 C2.12375 0.639375 2.2475 1.27875 2.375 1.9375 C2.58125 2.618125 2.7875 3.29875 3 4 C3.66 4.33 4.32 4.66 5 5 C5 5.66 5 6.32 5 7 C4.01 7.33 3.02 7.66 2 8 C0.79117904 10.00016466 0.79117904 10.00016466 0 12 C-0.66 11.34 -1.32 10.68 -2 10 C-4.57061311 9.35232207 -4.57061311 9.35232207 -7 9 C-6.67 6.36 -6.34 3.72 -6 1 C-4.7934375 1.0309375 -4.7934375 1.0309375 -3.5625 1.0625 C-1.06645115 1.29633621 -1.06645115 1.29633621 0 0 Z " fill="#F11B24" transform="translate(15,71)"/>
<path d="M0 0 C0.99 0 1.98 0 3 0 C3 4.95 3 9.9 3 15 C2.01 15 1.02 15 0 15 C0 10.05 0 5.1 0 0 Z " fill="#F31C25" transform="translate(164,147)"/>
<path d="M0 0 C0.53625 0.680625 1.0725 1.36125 1.625 2.0625 C3.91162152 4.38259327 3.91162152 4.38259327 7.25 3.75 C8.61125 3.37875 8.61125 3.37875 10 3 C10 4.32 10 5.64 10 7 C9.34 7 8.68 7 8 7 C7.67 7.66 7.34 8.32 7 9 C5.68 9 4.36 9 3 9 C2.01 6.03 1.02 3.06 0 0 Z " fill="#F2581A" transform="translate(67,74)"/>
<path d="M0 0 C2.64 0.33 5.28 0.66 8 1 C7.67 2.98 7.34 4.96 7 7 C6.01 6.67 5.02 6.34 4 6 C4 5.34 4 4.68 4 4 C2.68 4.99 1.36 5.98 0 7 C-1.33332095 4.3333581 -0.67102033 2.83319697 0 0 Z " fill="#F01A24" transform="translate(114,71)"/>
<path d="M0 0 C0.86625 0.495 0.86625 0.495 1.75 1 C4.19883862 2.27075898 4.19883862 2.27075898 8 2 C7.67 2.99 7.34 3.98 7 5 C4.33333333 5 1.66666667 5 -1 5 C-0.67 3.35 -0.34 1.7 0 0 Z " fill="#FBCD07" transform="translate(46,37)"/>
<path d="M0 0 C1.32 0 2.64 0 4 0 C6 2 6 2 6.125 4.625 C6.08375 5.40875 6.0425 6.1925 6 7 C2.58841744 5.86280581 1.88145399 4.95657056 0 2 C0 1.34 0 0.68 0 0 Z " fill="#08A04E" transform="translate(52,117)"/>
<path d="M0 0 C0.66 0 1.32 0 2 0 C2.103125 0.639375 2.20625 1.27875 2.3125 1.9375 C2.539375 2.618125 2.76625 3.29875 3 4 C3.99 4.33 4.98 4.66 6 5 C5.67 6.32 5.34 7.64 5 9 C1.7457985 6.16569547 0.4793247 4.31392226 0 0 Z " fill="#EE2C21" transform="translate(73,66)"/>
<path d="M0 0 C0.99 0 1.98 0 3 0 C3 1.65 3 3.3 3 5 C1.68 5 0.36 5 -1 5 C-0.67 3.35 -0.34 1.7 0 0 Z " fill="#FBC209" transform="translate(67,79)"/>
<path d="M0 0 C1.32 0 2.64 0 4 0 C4 0.99 4 1.98 4 3 C2.35 3.66 0.7 4.32 -1 5 C-0.67 3.35 -0.34 1.7 0 0 Z " fill="#FCD606" transform="translate(80,67)"/>
</svg>
